<?xml version="1.0" encoding="utf-8"?>
<!-- Generator: Adobe Illustrator 17.1.0, SVG Export Plug-In . SVG Version: 6.00 Build 0)  -->
<!DOCTYPE svg PUBLIC "-//W3C//DTD SVG 1.1//EN" "http://www.w3.org/Graphics/SVG/1.1/DTD/svg11.dtd">
<svg version="1.1" id="Layer_1" xmlns="http://www.w3.org/2000/svg" xmlns:xlink="http://www.w3.org/1999/xlink" x="0px" y="0px"
	 viewBox="0 0 458.1 413" enable-background="new 0 0 458.1 413" xml:space="preserve">
<path fill="#F68620" d="M170.2,0c17,70,34,139.7,51,209.3c0.7,0,1.4,0.1,2.1,0.1c15.4-48.7,30.8-97.3,46.7-147.3
	c2.6,6.4,4.9,11.6,7,17c5.6,14.7,11.1,29.5,16.7,44.2c7.1,18.9,14.3,37.8,21.4,56.7c0.4,1.1,0.9,2.1,1.4,3.2
	c1.3,2.8,2.5,2.4,4.3,0.2c1-1.3,3-2.5,4.5-2.5c42.8-0.1,85.6-0.1,128.4-0.1c2.6,0,4.5,0.1,4.5,3.6c-0.1,15.7-0.1,31.5-0.1,47.8
	c-2,0.1-3.7,0.4-5.4,0.4c-30.4,0-60.7,0.1-91.1,0c-4.1,0-6.2,1.1-8,5.4c-7.4,17.9-15.4,35.5-23.3,53.3c-4.5,10.2-9.1,20.4-13.7,30.6
	c-0.6,1.3-1.3,2.5-2.2,4.2c-13.1-34.7-25.9-68.6-38.7-102.5c-0.6,0-1.2,0-1.7,0c-19.5,60.8-39,121.6-59,183.8
	c-1.4-5.4-2.4-9.7-3.5-13.9c-2.9-11.7-5.8-23.3-8.6-35.1c-2.1-9-3.8-18.2-6-27.2c-2.9-12.1-6.3-24.2-9.3-36.3
	c-4.1-16.5-7.9-33.1-11.9-49.6c-3.4-13.8-6.9-27.5-10.3-41.3c-1.6-6.4-2.8-12.8-4.3-19.2c-0.3-1.1-1.1-2.1-1.7-3.2
	c-0.8,1-2,1.9-2.4,3.1c-5.6,14.9-10.9,29.9-16.6,44.7c-0.6,1.5-3.1,3.1-4.7,3.1c-44,0.2-87.9,0.1-131.9,0.1c-1.1,0-2.2-0.3-3.7-0.5
	c0-16.3-0.1-32.3,0.2-48.4c0-1,2.6-2.6,4-2.7c6.8-0.3,13.6-0.1,20.4-0.1c23.7,0,47.4-0.1,71.2,0.1c4.6,0,7.1-0.8,8.9-6
	c6.9-19.9,14.8-39.4,22.1-59.1c6.8-18.1,13.4-36.3,20.1-54.4c7.4-20.1,14.8-40.3,22.2-60.4C169.2,0.7,169.6,0.6,170.2,0z"/>
</svg>
